<?xml version="1.0"?>
<svg width="610" height="190" xmlns="http://www.w3.org/2000/svg" xmlns:svg="http://www.w3.org/2000/svg">
 <!-- Created with SVG-edit - https://github.com/SVG-Edit/svgedit-->
 <title>ALFA Logo</title>
 <g class="layer">
  <title>Layer 1</title>
  <polyline fill="none" id="svg_1" points="25.784774780273438,171.90310668945312 59.429954528808594,95.42943572998047 93.07514190673828,18.95571517944336 " stroke="#4c4c4c" stroke-linecap="round" stroke-width="36"/>
  <line fill="none" id="svg_2" stroke="#4c4c4c" stroke-linecap="round" stroke-width="36" x1="93.326264" x2="155.139609" y1="18.355715" y2="171.969835"/>
  <line fill="none" id="svg_3" stroke="#4c4c4c" stroke-linecap="round" stroke-width="36" transform="rotate(0.362979 207.085 94.2531)" x1="206.584772" x2="207.584772" y1="17.927572" y2="170.578647"/>
  <line fill="none" id="svg_4" stroke="#4c4c4c" stroke-linecap="round" stroke-width="36" transform="rotate(90.549 250.991 170.49)" x1="250.705165" x2="251.276679" y1="126.790437" y2="214.190441"/>
  <line fill="none" id="svg_10" stroke="#4c4c4c" stroke-linecap="round" stroke-width="36" x1="346.774915" x2="347.774915" y1="18.599425" y2="171.816004"/>
  <line fill="none" id="svg_9" stroke="#4c4c4c" stroke-linecap="round" stroke-width="36" transform="rotate(90.8482 391.087 18.4877)" x1="390.586557" x2="391.586557" y1="-25.212235" y2="62.187768"/>
  <line fill="none" id="svg_11" stroke="#4c4c4c" stroke-linecap="round" stroke-width="37" transform="rotate(90 92.27 124.516)" x1="92.369979" x2="92.169979" y1="124.416453" y2="124.616455"/>
  <line fill="none" id="svg_12" stroke="#4c4c4c" stroke-linecap="round" stroke-width="37" transform="rotate(90 390.161 123.406)" x1="390.261227" x2="390.061227" y1="123.306077" y2="123.506078"/>
  <line fill="none" id="svg_7" stroke="#4c4c4c" stroke-linecap="round" stroke-width="36" x1="521.364075" x2="583.177421" y1="18.44294" y2="172.05706"/>
  <polyline fill="none" id="svg_6" points="453.82257080078125,171.49032592773438 487.4677734375,95.01666259765625 521.1129150390625,18.542940139770508 " stroke="#4c4c4c" stroke-linecap="round" stroke-width="36"/>
  <line fill="none" id="svg_5" stroke="#4c4c4c" stroke-linecap="round" stroke-width="37" transform="rotate(90 520.308 124.104)" x1="520.40779" x2="520.20779" y1="124.003678" y2="124.20368"/>
 </g>
</svg>