<?xml version="1.0"?>
<svg width="594" height="190" xmlns="http://www.w3.org/2000/svg" xmlns:svg="http://www.w3.org/2000/svg">
 <!-- Created with SVG-edit - https://github.com/SVG-Edit/svgedit-->
 <title>ALFA Logo</title>
 <g class="layer">
  <title>Layer 1</title>
  <line fill="none" id="svg_2" stroke="#282828" stroke-linecap="round" stroke-width="36" x1="85.326264" x2="147.139609" y1="18.355715" y2="171.969835"/>
  <polyline fill="none" id="svg_1" points="17.784774780273438,171.90310668945312 51.429954528808594,95.42943572998047 85.07514190673828,18.95571517944336 " stroke="#282828" stroke-linecap="round" stroke-width="36"/>
  <line fill="none" id="svg_3" stroke="#282828" stroke-linecap="round" stroke-width="36" transform="rotate(0.362979 199.085 95.2531)" x1="198.584772" x2="199.584772" y1="18.927572" y2="171.578647"/>
  <line fill="none" id="svg_4" stroke="#282828" stroke-linecap="round" stroke-width="36" transform="rotate(90.549 242.991 171.49)" x1="242.705165" x2="243.276679" y1="127.790437" y2="215.190441"/>
  <line fill="none" id="svg_10" stroke="#282828" stroke-linecap="round" stroke-width="36" x1="338.774915" x2="339.774915" y1="18.599425" y2="171.816004"/>
  <line fill="none" id="svg_9" stroke="#282828" stroke-linecap="round" stroke-width="36" transform="rotate(90.8482 383.087 18.4877)" x1="382.586557" x2="383.586557" y1="-25.212235" y2="62.187768"/>
  <line fill="none" id="svg_11" stroke="#282828" stroke-linecap="round" stroke-width="37" transform="rotate(90 84.27 124.516)" x1="84.369979" x2="84.169979" y1="124.416453" y2="124.616455"/>
  <line fill="none" id="svg_12" stroke="#282828" stroke-linecap="round" stroke-width="37" transform="rotate(90 382.161 123.406)" x1="382.261227" x2="382.061227" y1="123.306077" y2="123.506078"/>
  <line fill="none" id="svg_7" stroke="#282828" stroke-linecap="round" stroke-width="36" x1="513.364075" x2="575.177421" y1="18.44294" y2="172.05706"/>
  <polyline fill="none" id="svg_6" points="445.82257080078125,171.49032592773438 479.4677734375,95.01666259765625 513.1129150390625,18.542940139770508 " stroke="#282828" stroke-linecap="round" stroke-width="36"/>
  <line fill="none" id="svg_5" stroke="#282828" stroke-linecap="round" stroke-width="37" transform="rotate(90 512.308 124.104)" x1="512.40779" x2="512.20779" y1="124.003678" y2="124.20368"/>
 </g>
</svg>