<svg version="1.1" viewBox="0.0 0.0 155.0 37.79527559055118" fill="none" stroke="none" stroke-linecap="square" stroke-miterlimit="10" xmlns:xlink="http://www.w3.org/1999/xlink" xmlns="http://www.w3.org/2000/svg"><clipPath id="p.0"><path d="m0 0l155.0 0l0 37.795277l-155.0 0l0 -37.795277z" clip-rule="nonzero"/></clipPath><g clip-path="url(#p.0)"><path fill="#000000" fill-opacity="0.0" d="m0 0l155.0 0l0 37.795277l-155.0 0z" fill-rule="evenodd"/><path fill="#ffffaf" d="m1.4986876 14.503964l0 0c0 -6.6288824 5.3737707 -12.002653 12.002653 -12.002653l127.99469 0c3.1833038 0 6.2362213 1.2645617 8.487152 3.5154958c2.250946 2.2509341 3.515503 5.3038554 3.515503 8.487158l0 9.002568c0 6.6288815 -5.373764 12.002653 -12.002655 12.002653l-127.99469 0l0 0c-6.6288824 0 -12.002653 -5.3737717 -12.002653 -12.002653z" fill-rule="evenodd"/><path stroke="#999999" stroke-width="1.0" stroke-linejoin="round" stroke-linecap="butt" d="m1.4986876 14.503964l0 0c0 -6.6288824 5.3737707 -12.002653 12.002653 -12.002653l127.99469 0c3.1833038 0 6.2362213 1.2645617 8.487152 3.5154958c2.250946 2.2509341 3.515503 5.3038554 3.515503 8.487158l0 9.002568c0 6.6288815 -5.373764 12.002653 -12.002655 12.002653l-127.99469 0l0 0c-6.6288824 0 -12.002653 -5.3737717 -12.002653 -12.002653z" fill-rule="evenodd"/><path fill="#000000" fill-opacity="0.0" d="m-3.5013123 -2.1096265l128.0 0l0 42.015747l-128.0 0z" fill-rule="evenodd"/><path fill="#666666" d="m8.201813 24.810371q-1.265625 0 -1.265625 -1.265625l0 -10.625q0 -1.265625 1.265625 -1.265625l4.484375 0q2.0625 0 3.203125 0.90625q1.140625 0.90625 1.140625 2.515625q0 1.0625 -0.546875 1.828125q-0.53125 0.765625 -1.484375 1.109375q1.109375 0.328125 1.734375 1.125q0.625 0.78125 0.625 2.0q0 1.75 -1.1875 2.71875q-1.171875 0.953125 -3.28125 0.953125l-4.6875 0zm1.03125 -7.578125l3.03125 0q2.453125 0 2.453125 -1.875q0 -1.890625 -2.453125 -1.890625l-3.03125 0l0 3.765625zm0 5.765625l3.359375 0q2.453125 0 2.453125 -1.96875q0 -1.984375 -2.453125 -1.984375l-3.359375 0l0 3.953125zm13.61676 2.0q-3.359375 0 -3.359375 -3.765625l0 -4.515625q0 -1.171875 1.15625 -1.171875q1.171875 0 1.171875 1.171875l0 4.546875q0 0.96875 0.390625 1.4375q0.390625 0.46875 1.25 0.46875q0.9375 0 1.53125 -0.640625q0.59375 -0.640625 0.59375 -1.71875l0 -4.09375q0 -1.171875 1.15625 -1.171875q1.1875 0 1.1875 1.171875l0 7.046875q0 1.203125 -1.140625 1.203125q-1.140625 0 -1.140625 -1.203125l0 -0.3125q-0.90625 1.546875 -2.796875 1.546875zm8.661346 -11.171875q-0.65625 0 -1.03125 -0.328125q-0.359375 -0.328125 -0.359375 -0.90625q0 -0.59375 0.359375 -0.90625q0.375 -0.328125 1.03125 -0.328125q1.375 0 1.375 1.234375q0 1.234375 -1.375 1.234375zm0 11.109375q-0.5625 0 -0.859375 -0.328125q-0.296875 -0.34375 -0.296875 -0.9375l0 -6.84375q0 -1.265625 1.15625 -1.265625q1.171875 0 1.171875 1.265625l0 6.84375q0 0.59375 -0.296875 0.9375q-0.296875 0.328125 -0.875 0.328125zm6.7104645 0.0625q-3.109375 0 -3.109375 -3.484375l0 -8.828125q0 -1.171875 1.15625 -1.171875q1.171875 0 1.171875 1.171875l0 8.703125q0 1.6875 1.390625 1.6875q0.15625 0 0.28125 0q0.140625 -0.015625 0.265625 -0.03125q0.265625 -0.046875 0.359375 0.140625q0.09375 0.171875 0.09375 0.703125q0 0.46875 -0.1875 0.734375q-0.1875 0.265625 -0.625 0.3125q-0.390625 0.0625 -0.796875 0.0625zm6.771179 0q-3.625 0 -3.625 -3.578125l0 -3.984375l-0.96875 0q-0.921875 0 -0.921875 -0.875q0 -0.875 0.921875 -0.875l0.96875 0l0 -1.703125q0 -1.171875 1.1875 -1.171875q1.15625 0 1.15625 1.171875l0 1.703125l1.96875 0q0.9375 0 0.9375 0.875q0 0.875 -0.9375 0.875l-1.96875 0l0 3.84375q0 0.90625 0.390625 1.359375q0.390625 0.4375 1.265625 0.4375q0.3125 0 0.546875 -0.046875q0.25 -0.0625 0.4375 -0.078125q0.234375 -0.03125 0.375 0.140625q0.15625 0.15625 0.15625 0.640625q0 0.375 -0.125 0.671875q-0.125 0.28125 -0.4375 0.390625q-0.25 0.078125 -0.640625 0.140625q-0.390625 0.0625 -0.6875 0.0625zm11.344849 0q-3.359375 0 -3.359375 -3.765625l0 -4.515625q0 -1.171875 1.15625 -1.171875q1.171875 0 1.171875 1.171875l0 4.546875q0 0.96875 0.390625 1.4375q0.390625 0.46875 1.25 0.46875q0.9375 0 1.53125 -0.640625q0.59375 -0.640625 0.59375 -1.71875l0 -4.09375q0 -1.171875 1.15625 -1.171875q1.1875 0 1.1875 1.171875l0 7.046875q0 1.203125 -1.140625 1.203125q-1.140625 0 -1.140625 -1.203125l0 -0.3125q-0.90625 1.546875 -2.796875 1.546875zm10.833221 0q-0.796875 0 -1.703125 -0.171875q-0.890625 -0.171875 -1.59375 -0.578125q-0.390625 -0.21875 -0.484375 -0.546875q-0.09375 -0.328125 0.03125 -0.609375q0.125 -0.296875 0.40625 -0.421875q0.296875 -0.140625 0.6875 0.046875q0.734375 0.359375 1.390625 0.5q0.65625 0.140625 1.296875 0.140625q0.890625 0 1.328125 -0.3125q0.4375 -0.3125 0.4375 -0.8125q0 -0.78125 -1.15625 -1.0l-1.859375 -0.359375q-2.375 -0.453125 -2.375 -2.46875q0 -0.890625 0.484375 -1.53125q0.5 -0.65625 1.375 -1.015625q0.875 -0.359375 2.015625 -0.359375q1.640625 0 2.9375 0.734375q0.34375 0.1875 0.40625 0.515625q0.078125 0.3125 -0.0625 0.609375q-0.140625 0.296875 -0.4375 0.421875q-0.296875 0.109375 -0.6875 -0.078125q-0.578125 -0.296875 -1.125 -0.421875q-0.53125 -0.140625 -1.015625 -0.140625q-0.90625 0 -1.34375 0.328125q-0.4375 0.3125 -0.4375 0.828125q0 0.828125 1.0625 1.015625l1.859375 0.34375q1.21875 0.234375 1.84375 0.828125q0.625 0.59375 0.625 1.609375q0 1.359375 -1.0625 2.140625q-1.0625 0.765625 -2.84375 0.765625zm6.932373 -11.171875q-0.65625 0 -1.03125 -0.328125q-0.359375 -0.328125 -0.359375 -0.90625q0 -0.59375 0.359375 -0.90625q0.375 -0.328125 1.03125 -0.328125q1.375 0 1.375 1.234375q0 1.234375 -1.375 1.234375zm0 11.109375q-0.5625 0 -0.859375 -0.328125q-0.296875 -0.34375 -0.296875 -0.9375l0 -6.84375q0 -1.265625 1.15625 -1.265625q1.171875 0 1.171875 1.265625l0 6.84375q0 0.59375 -0.296875 0.9375q-0.296875 0.328125 -0.875 0.328125zm4.7573395 0.03125q-1.15625 0 -1.15625 -1.203125l0 -7.046875q0 -1.171875 1.125 -1.171875q1.140625 0 1.140625 1.171875l0 0.390625q0.46875 -0.78125 1.265625 -1.1875q0.796875 -0.421875 1.78125 -0.421875q3.21875 0 3.21875 3.75l0 4.515625q0 1.203125 -1.15625 1.203125q-1.171875 0 -1.171875 -1.203125l0 -4.40625q0 -1.0625 -0.40625 -1.546875q-0.390625 -0.484375 -1.234375 -0.484375q-1.03125 0 -1.640625 0.65625q-0.59375 0.640625 -0.59375 1.703125l0 4.078125q0 1.203125 -1.171875 1.203125zm14.00766 3.390625q-1.015625 0 -1.953125 -0.1875q-0.9375 -0.1875 -1.703125 -0.578125q-0.453125 -0.21875 -0.546875 -0.578125q-0.078125 -0.34375 0.078125 -0.65625q0.15625 -0.3125 0.453125 -0.453125q0.3125 -0.140625 0.671875 0.03125q0.8125 0.40625 1.546875 0.515625q0.734375 0.125 1.265625 0.125q2.5 0 2.5 -2.40625l0 -1.25q-0.390625 0.765625 -1.203125 1.21875q-0.8125 0.453125 -1.796875 0.453125q-1.234375 0 -2.15625 -0.5625q-0.90625 -0.578125 -1.421875 -1.609375q-0.5 -1.03125 -0.5 -2.390625q0 -1.359375 0.5 -2.375q0.515625 -1.015625 1.421875 -1.578125q0.921875 -0.578125 2.15625 -0.578125q0.984375 0 1.78125 0.4375q0.8125 0.421875 1.1875 1.171875l0 -0.390625q0 -0.578125 0.296875 -0.875q0.3125 -0.296875 0.859375 -0.296875q1.15625 0 1.15625 1.171875l0 7.171875q0 2.234375 -1.1875 3.34375q-1.171875 1.125 -3.40625 1.125zm-0.0625 -5.546875q1.09375 0 1.71875 -0.734375q0.640625 -0.75 0.640625 -2.046875q0 -1.28125 -0.640625 -2.015625q-0.625 -0.734375 -1.71875 -0.734375q-1.078125 0 -1.71875 0.734375q-0.625 0.734375 -0.625 2.015625q0 1.296875 0.625 2.046875q0.640625 0.734375 1.71875 0.734375z" fill-rule="nonzero"/></g></svg>